<?xml version="1.0" encoding="UTF-8" standalone="no"?>
<svg width="50px" height="50px" viewBox="0 0 50 50" version="1.1" xmlns="http://www.w3.org/2000/svg" xmlns:xlink="http://www.w3.org/1999/xlink" xmlns:sketch="http://www.bohemiancoding.com/sketch/ns">
    <!-- Generator: Sketch 3.3.2 (12043) - http://www.bohemiancoding.com/sketch -->
    <title>emoji-input-default</title>
    <desc>Created with Sketch.</desc>
    <defs></defs>
    <g id="Page-1" stroke="none" stroke-width="1" fill="none" fill-rule="evenodd" sketch:type="MSPage">
        <g id="emoji-input-default" sketch:type="MSArtboardGroup" fill="#DDDDDD">
            <path d="M14.0588235,20.1176471 C15.7411765,20.1176471 17.1176471,18.7411765 17.1176471,17.0588235 C17.1176471,15.3764706 15.7411765,14 14.0588235,14 C12.3764706,14 11,15.3764706 11,17.0588235 C11,18.7411765 12.3764706,20.1176471 14.0588235,20.1176471 Z M35.7764706,20.1176471 C37.4588235,20.1176471 38.8352941,18.7411765 38.8352941,17.0588235 C38.8352941,15.3764706 37.4588235,14 35.7764706,14 C34.0941176,14 32.7176471,15.3764706 32.7176471,17.0588235 C32.7176471,18.7411765 33.9411765,20.1176471 35.7764706,20.1176471 Z M24.6117647,38.9294118 C17.7294118,38.9294118 11.7647059,34.1882353 11.1529412,28.2235294 C11,27.4588235 11.6117647,26.6941176 12.5294118,26.5411765 C13.4470588,26.3882353 14.0588235,27 14.2117647,27.9176471 C14.6705882,32.2 19.4117647,35.8705882 24.4588235,35.8705882 C29.6588235,35.8705882 34.5529412,32.2 35.0117647,27.9176471 C35.1647059,27.1529412 35.9294118,26.3882353 36.6941176,26.5411765 C37.4588235,26.6941176 38.0705882,27.3058824 38.0705882,28.2235294 C37.3058824,34.0352941 31.1882353,38.9294118 24.6117647,38.9294118 Z" id="face" sketch:type="MSShapeGroup"></path>
        </g>
    </g>
</svg>