<?xml version="1.0" encoding="UTF-8" standalone="no"?>
<svg width="201px" height="120px" viewBox="0 0 201 120" version="1.1" xmlns="http://www.w3.org/2000/svg" xmlns:xlink="http://www.w3.org/1999/xlink" xmlns:sketch="http://www.bohemiancoding.com/sketch/ns">
    <!-- Generator: Sketch 3.3.2 (12043) - http://www.bohemiancoding.com/sketch -->
    <title>Group</title>
    <desc>Created with Sketch.</desc>
    <defs>
        <path id="path-1" d="M0,17.8125 L17.8125,17.8125 L17.8125,0 L0,0 L0,17.8125 L0,17.8125 Z"></path>
        <path id="path-3" d="M0,17.8125 L17.8125,17.8125 L17.8125,0 L0,0 L0,17.8125 L0,17.8125 Z"></path>
    </defs>
    <g id="Page-1" stroke="none" stroke-width="1" fill="none" fill-rule="evenodd" sketch:type="MSPage">
        <g id="Artboard-1" sketch:type="MSArtboardGroup" transform="translate(-740.000000, -669.000000)">
            <g id="Group" sketch:type="MSLayerGroup" transform="translate(740.000000, 669.000000)">
                <g id="Imported-Layers-Copy-2" sketch:type="MSShapeGroup">
                    <path d="M174,97.326 C174,80.232 160.093,66 143,66 L109,66 C91.907,66 78,80.232 78,97.326 L78,98.674 C78,99.798 78.064,100.907 78.181,102 L173.819,102 C173.936,100.907 174,99.798 174,98.674 L174,97.326" id="Fill-1" fill="#FFFFFF"></path>
                    <path d="M78.181,102 C78.064,100.907 78,99.798 78,98.674 L78,97.326 C78,80.232 91.907,66 109,66 L143,66 C160.093,66 174,80.232 174,97.326 L174,98.674 C174,99.798 173.936,100.907 173.819,102 L177.838,102 C177.942,100.905 178,99.796 178,98.674 L178,97.326 C178,78.027 162.299,62 143,62 L109,62 C89.701,62 74,78.027 74,97.326 L74,98.674 C74,99.796 74.058,100.905 74.162,102 L78.181,102" id="Fill-2" fill="#222222"></path>
                    <path d="M199,102 L53,102 C51.895,102 51,102.895 51,104 C51,105.105 51.895,106 53,106 L199,106 C200.105,106 201,105.105 201,104 C201,102.895 200.105,102 199,102" id="Fill-3" fill="#222222"></path>
                    <path d="M162,37 C162,56.33 146.33,72 127,72 C107.67,72 92,56.33 92,37 C92,17.67 107.67,2 127,2 C146.33,2 162,17.67 162,37" id="Fill-4" fill="#FFFFFF"></path>
                    <path d="M127,74 C106.598,74 90,57.402 90,37 C90,16.598 106.598,0 127,0 C147.402,0 164,16.598 164,37 C164,57.402 147.402,74 127,74 L127,74 Z M127,4 C108.804,4 94,18.804 94,37 C94,55.196 108.804,70 127,70 C145.196,70 160,55.196 160,37 C160,18.804 145.196,4 127,4 L127,4 Z" id="Fill-5" fill="#222222"></path>
                    <g id="Group" transform="translate(0.000000, 14.000000)">
                        <path d="M123,97.326 C123,80.232 109.093,66 92,66 L58,66 C40.907,66 27,80.232 27,97.326 L27,98.674 C27,99.798 27.064,100.907 27.181,102 L122.819,102 C122.936,100.907 123,99.798 123,98.674 L123,97.326" id="Fill-9" fill="#FFFFFF"></path>
                        <path d="M27.181,102 C27.064,100.907 27,99.798 27,98.674 L27,97.326 C27,80.232 40.907,66 58,66 L92,66 C109.093,66 123,80.232 123,97.326 L123,98.674 C123,99.798 122.936,100.907 122.819,102 L126.838,102 C126.942,100.905 127,99.796 127,98.674 L127,97.326 C127,78.027 111.299,62 92,62 L58,62 C38.701,62 23,78.027 23,97.326 L23,98.674 C23,99.796 23.058,100.905 23.162,102 L27.181,102" id="Fill-10" fill="#222222"></path>
                        <path d="M148,102 L2,102 C0.895,102 0,102.895 0,104 C0,105.105 0.895,106 2,106 L148,106 C149.105,106 150,105.105 150,104 C150,102.895 149.105,102 148,102" id="Fill-11" fill="#222222"></path>
                        <path d="M111,37 C111,56.33 95.33,72 76,72 C56.67,72 41,56.33 41,37 C41,17.67 56.67,2 76,2 C95.33,2 111,17.67 111,37" id="Fill-12" fill="#FFFFFF"></path>
                        <path d="M76,74 C55.598,74 39,57.402 39,37 C39,16.598 55.598,0 76,0 C96.402,0 113,16.598 113,37 C113,57.402 96.402,74 76,74 L76,74 Z M76,4 C57.804,4 43,18.804 43,37 C43,55.196 57.804,70 76,70 C94.196,70 109,55.196 109,37 C109,18.804 94.196,4 76,4 L76,4 Z" id="Fill-13" fill="#222222"></path>
                    </g>
                </g>
                <g id="1f60b" transform="translate(35.000000, 93.000000)">
                    <g id="g10" transform="translate(9.000000, 9.000000) scale(1, -1) translate(-9.000000, -9.000000) ">
                        <g id="g12">
                            <g id="g14-Clipped">
                                <mask id="mask-2" sketch:name="path18" fill="white">
                                    <use xlink:href="#path-1"></use>
                                </mask>
                                <g id="path18"></g>
                                <g id="g14" mask="url(#mask-2)">
                                    <g transform="translate(0.154891, -0.313859)">
                                        <g id="g20" transform="translate(0.000000, 0.468750)">
                                            <path d="M16.7201087,8.7513587 C16.7201087,4.35026495 13.1524524,0.782608696 8.7513587,0.782608696 C4.35026495,0.782608696 0.782608696,4.35026495 0.782608696,8.7513587 C0.782608696,13.1524524 4.35026495,16.7201087 8.7513587,16.7201087 C13.1524524,16.7201087 16.7201087,13.1524524 16.7201087,8.7513587" id="path22" fill="#FFCC4D" sketch:type="MSShapeGroup"></path>
                                        </g>
                                        <g id="g24" transform="translate(10.157609, 0.782609)">
                                            <path d="M0,3.28125 L2.34375,0.9375 C3.15375,0.1275 4.6875,-2.22044605e-15 5.625,0.9375 C6.5625,1.875 6.51703125,3.2634375 5.70703125,4.07390625 L3.75,6.09375 C2.34375,3.75 0,3.28125 0,3.28125" id="path26" fill="#E75A70" sketch:type="MSShapeGroup"></path>
                                        </g>
                                        <g id="g28" transform="translate(4.532609, 3.126359)">
                                            <path d="M4.21875,0 C1.19015625,0 0.1228125,1.54921875 0.07875,1.61484375 C-0.0646875,1.83046875 -0.0065625,2.12109375 0.20859375,2.265 C0.4228125,2.40796875 0.7115625,2.35125 0.85640625,2.139375 C0.89625,2.08171875 1.7371875,0.9375 4.21875,0.9375 C8.00671875,0.9375 8.88515625,4.19484375 8.9203125,4.33359375 C8.985,4.58390625 9.23859375,4.73625 9.48984375,4.6725 C9.74015625,4.60921875 9.8925,4.355625 9.8296875,4.1053125 C9.819375,4.0640625 8.75109375,0 4.21875,0" id="path30" fill="#664500" sketch:type="MSShapeGroup"></path>
                                        </g>
                                        <g id="g32" transform="translate(3.125890, 9.220109)">
                                            <path d="M0.46875,0.46875 C0.3984375,0.46875 0.32671875,0.4846875 0.2596875,0.51796875 C0.028125,0.63421875 -0.06609375,0.9159375 0.0496875,1.14703125 C0.07453125,1.19625 0.66796875,2.34375 2.34421875,2.34375 C4.02140625,2.34375 4.61390625,1.19578125 4.63828125,1.14703125 C4.75453125,0.91546875 4.6603125,0.63421875 4.42875,0.51796875 C4.19859375,0.40265625 3.92015625,0.49546875 3.8025,0.7228125 C3.781875,0.7603125 3.41296875,1.40625 2.34421875,1.40625 C1.258125,1.40625 0.8915625,0.73453125 0.88875,0.72796875 C0.80625,0.5634375 0.64078125,0.46875 0.46875,0.46875" id="path34" fill="#664500" sketch:type="MSShapeGroup"></path>
                                        </g>
                                        <g id="g36" transform="translate(10.157609, 9.688624)">
                                            <path d="M0.46875,0 C0.279375,0 0.1003125,0.11625 0.03,0.30421875 C-0.0609375,0.54703125 0.061875,0.81703125 0.30375,0.90796875 L4.05375,2.31421875 C4.2965625,2.40375 4.56703125,2.28234375 4.65796875,2.04 C4.7484375,1.79765625 4.625625,1.5271875 4.38375,1.43625 L0.63375,0.03 C0.57890625,0.00984375 0.52359375,0 0.46875,0" id="path38" fill="#664500" sketch:type="MSShapeGroup"></path>
                                        </g>
                                    </g>
                                </g>
                            </g>
                        </g>
                    </g>
                </g>
                <g id="1f680" transform="translate(146.000000, 78.000000)">
                    <g id="g10" transform="translate(9.000000, 9.812500) scale(1, -1) translate(-9.000000, -9.812500) translate(0.000000, 0.812500)">
                        <g id="g12">
                            <g id="g14-Clipped">
                                <mask id="mask-4" sketch:name="path18" fill="white">
                                    <use xlink:href="#path-3"></use>
                                </mask>
                                <g id="path18"></g>
                                <g id="g14" mask="url(#mask-4)">
                                    <g transform="translate(0.000000, 0.937500)">
                                        <g id="g20" transform="translate(0.937734, 0.000000)">
                                            <path d="M0,8.4375 L3.75,11.71875 L11.25,11.25 L11.71875,3.75 L8.4375,0 C8.4375,0 8.4375,2.81203125 5.625,5.625 C2.81203125,8.43796875 0,8.4375 0,8.4375" id="path22" fill="#A0041E" sketch:type="MSShapeGroup"></path>
                                        </g>
                                        <g id="g24" transform="translate(0.455953, 0.000000)">
                                            <path d="M0.46875,0 C0.46875,0 0.451875,3.74015625 1.86796875,5.15625 C3.2840625,6.57234375 7.04390625,6.47484375 7.04390625,6.47484375 C7.04390625,6.47484375 7.0434375,2.8125 5.6371875,1.40625 C4.2309375,0 0.46875,0 0.46875,0" id="path26" fill="#FFAC33" sketch:type="MSShapeGroup"></path>
                                        </g>
                                        <g id="g28" transform="translate(2.812031, 1.875000)">
                                            <path d="M0,1.875 C0,2.91046875 0.83953125,3.75 1.875,3.75 C2.91046875,3.75 3.75,2.91046875 3.75,1.875 C3.75,0.83953125 2.91046875,0 1.875,0 C0.83953125,0 0,0.83953125 0,1.875" id="path30" fill="#FFCC4D" sketch:type="MSShapeGroup"></path>
                                        </g>
                                        <g id="g32" transform="translate(4.218281, 3.281484)">
                                            <path d="M13.125,13.125 C13.125,13.125 8.4375,13.125 2.8125,8.4375 C-1.09356968e-14,6.09375 -1.09356968e-14,1.875 0.9375,0.9375 C1.875,-1.08801856e-14 6.09375,-1.08801856e-14 8.4375,2.8125 C13.125,8.4375 13.125,13.125 13.125,13.125" id="path34" fill="#55ACEE" sketch:type="MSShapeGroup"></path>
                                        </g>
                                        <g id="g36" transform="translate(11.249531, 10.312734)">
                                            <path d="M1.875,3.75 C1.11421875,3.75 0.46265625,3.29484375 0.16828125,2.64375 C0.40359375,2.75015625 0.6628125,2.8125 0.9375,2.8125 C1.97296875,2.8125 2.8125,1.97296875 2.8125,0.9375 C2.8125,0.6628125 2.75015625,0.40359375 2.64421875,0.16875 C3.29484375,0.46265625 3.75,1.11421875 3.75,1.875 C3.75,2.91046875 2.91046875,3.75 1.875,3.75" id="path38" fill="#000000" sketch:type="MSShapeGroup"></path>
                                        </g>
                                        <g id="g40" transform="translate(4.218750, 3.281250)">
                                            <path d="M0,0 C0,0 0,1.875 0.46875,2.34375 C0.9375,2.8125 6.56296875,7.49953125 7.03125,7.03125 C7.49953125,6.56296875 2.81203125,0.9375 2.34328125,0.46875 C1.87453125,0 0,0 0,0" id="path42" fill="#A0041E" sketch:type="MSShapeGroup"></path>
                                        </g>
                                    </g>
                                </g>
                            </g>
                        </g>
                    </g>
                </g>
            </g>
        </g>
    </g>
</svg>