<?xml version="1.0" encoding="UTF-8" standalone="no"?>
<svg width="196px" height="21px" viewBox="0 0 196 21" version="1.1" xmlns="http://www.w3.org/2000/svg" xmlns:xlink="http://www.w3.org/1999/xlink" xmlns:sketch="http://www.bohemiancoding.com/sketch/ns">
    <!-- Generator: Sketch 3.3.2 (12043) - http://www.bohemiancoding.com/sketch -->
    <title>Untitled 12</title>
    <desc>Created with Sketch.</desc>
    <defs></defs>
    <g id="Page-1" stroke="none" stroke-width="1" fill="none" fill-rule="evenodd" sketch:type="MSPage">
        <g id="wordmark" sketch:type="MSLayerGroup" transform="translate(36.000000, 0.000000)" fill="#324244">
            <path d="M150.7,9.1 L144.895,1.116 C144.31,0.312 143.185,0.134 142.382,0.719 C141.578,1.303 141.4,2.428 141.984,3.232 L148.9,12.744 L148.9,17.826 C148.9,18.82 149.706,19.626 150.7,19.626 C151.693,19.626 152.499,18.82 152.499,17.826 L152.499,11.902 L150.7,9.1 Z M156.683,1.072 C157.238,0.313 158.302,0.148 159.061,0.703 C159.82,1.257 159.985,2.322 159.43,3.081 L156.058,7.691 L156.056671,7.69002826 C156.052163,7.69637308 156.047607,7.70269716 156.043,7.709 C155.488,8.468 154.423,8.633 153.665,8.078 C152.906,7.524 152.741,6.459 153.296,5.7 C153.312837,5.67696297 153.330146,5.65447368 153.347904,5.63253565 L156.683,1.072 Z" id="Fill-7-path" sketch:type="MSShapeGroup"></path>
            <path d="M139.979,15.985 L132.575,15.985 L132.575,2.246 C132.575,1.261 131.776,0.462 130.79,0.462 C129.805,0.462 129.006,1.261 129.006,2.246 L129.006,17.77 C129.006,18.755 129.805,19.554 130.79,19.554 L139.979,19.554 C140.965,19.554 141.763,18.755 141.763,17.77 C141.763,16.784 140.965,15.985 139.979,15.985 L139.979,15.985 L139.979,15.985 Z" id="Fill-7-path" sketch:type="MSShapeGroup"></path>
            <path d="M123.608,13.684 C123.608,16.926 120.97,19.564 117.728,19.564 L109.096,19.564 C108.11,19.564 107.312,18.765 107.312,17.78 L107.312,2.257 C107.312,1.271 108.11,0.473 109.096,0.473 L116.581,0.473 C116.666,0.46 116.752,0.452 116.84,0.452 C119.851,0.452 122.3,2.901 122.3,5.912 C122.3,7.072 121.936,8.147 121.318,9.032 C122.709,10.108 123.608,11.793 123.608,13.684 Z M110.88,7.804 L116.84,7.804 C117.883,7.804 118.732,6.956 118.732,5.912 C118.732,4.934 117.987,4.128 117.034,4.03 C116.97,4.037 116.906,4.041 116.84,4.041 L110.88,4.041 L110.88,7.804 Z M120.039,13.684 C120.039,12.409 119.002,11.372 117.728,11.372 L110.88,11.373 L110.88,15.996 L117.728,15.996 C119.002,15.996 120.039,14.959 120.039,13.684 Z" id="Path" sketch:type="MSShapeGroup"></path>
            <path d="M101.176,2.118 C101.173,2.09 101.171,2.062 101.168,2.034 C101.165,2.006 101.16,1.979 101.156,1.951 C101.15,1.92 101.145,1.889 101.138,1.859 C101.133,1.835 101.126,1.811 101.12,1.787 C101.111,1.755 101.103,1.723 101.092,1.691 C101.085,1.668 101.075,1.644 101.067,1.621 C101.055,1.591 101.045,1.561 101.032,1.532 C101.021,1.506 101.008,1.481 100.995,1.455 C100.982,1.43 100.97,1.404 100.956,1.38 C100.941,1.352 100.924,1.325 100.907,1.298 C100.893,1.277 100.88,1.255 100.866,1.234 C100.848,1.207 100.828,1.181 100.807,1.155 C100.792,1.135 100.777,1.115 100.761,1.097 C100.74,1.073 100.719,1.05 100.698,1.027 C100.678,1.006 100.66,0.986 100.64,0.967 C100.619,0.947 100.598,0.929 100.578,0.91 C100.553,0.889 100.528,0.868 100.503,0.848 C100.494,0.841 100.487,0.834 100.479,0.827 C100.467,0.818 100.454,0.81 100.442,0.802 C100.414,0.782 100.386,0.762 100.357,0.744 C100.336,0.73 100.314,0.717 100.291,0.704 C100.264,0.688 100.235,0.672 100.206,0.657 C100.182,0.645 100.158,0.633 100.133,0.622 C100.105,0.609 100.077,0.598 100.048,0.587 C100.022,0.576 99.995,0.566 99.968,0.557 C99.941,0.548 99.913,0.539 99.885,0.531 C99.856,0.523 99.826,0.515 99.797,0.509 C99.771,0.503 99.744,0.497 99.717,0.492 C99.685,0.487 99.653,0.482 99.621,0.478 C99.596,0.475 99.571,0.472 99.545,0.47 C99.51,0.467 99.477,0.465 99.442,0.464 C99.427,0.464 99.412,0.462 99.398,0.462 C99.387,0.462 99.377,0.464 99.366,0.464 C99.333,0.464 99.301,0.466 99.268,0.469 C99.24,0.471 99.213,0.473 99.186,0.476 C99.157,0.479 99.129,0.484 99.1,0.489 C99.071,0.494 99.04,0.499 99.011,0.505 C98.986,0.511 98.961,0.518 98.935,0.525 C98.905,0.533 98.873,0.541 98.843,0.551 C98.818,0.559 98.794,0.569 98.769,0.578 C98.741,0.589 98.712,0.6 98.683,0.612 C98.657,0.624 98.63,0.637 98.604,0.65 C98.579,0.662 98.555,0.674 98.531,0.687 C98.503,0.703 98.475,0.721 98.448,0.738 C98.427,0.751 98.406,0.764 98.386,0.778 C98.358,0.796 98.332,0.817 98.306,0.838 C98.286,0.853 98.266,0.867 98.248,0.883 C98.224,0.903 98.201,0.925 98.178,0.946 C98.158,0.966 98.137,0.985 98.118,1.005 C98.098,1.025 98.08,1.045 98.062,1.066 C98.04,1.091 98.019,1.116 97.998,1.142 C97.992,1.15 97.985,1.157 97.978,1.165 L91.635,9.493 L85.526,1.189 C85.517,1.177 85.508,1.167 85.498,1.155 C85.478,1.129 85.458,1.104 85.436,1.079 C85.418,1.057 85.398,1.036 85.379,1.016 C85.359,0.995 85.34,0.976 85.319,0.956 C85.296,0.934 85.273,0.913 85.25,0.893 C85.23,0.876 85.21,0.86 85.19,0.844 C85.165,0.824 85.138,0.805 85.112,0.786 C85.091,0.771 85.07,0.757 85.048,0.744 C85.022,0.727 84.995,0.71 84.968,0.695 C84.943,0.681 84.919,0.668 84.894,0.656 C84.869,0.643 84.843,0.63 84.817,0.619 C84.789,0.606 84.761,0.595 84.732,0.584 C84.708,0.574 84.683,0.565 84.659,0.557 C84.628,0.546 84.598,0.537 84.566,0.529 C84.541,0.522 84.517,0.515 84.492,0.51 C84.461,0.503 84.431,0.496 84.4,0.491 C84.372,0.486 84.344,0.482 84.316,0.478 C84.287,0.475 84.259,0.472 84.231,0.469 C84.198,0.467 84.166,0.465 84.133,0.464 C84.118,0.464 84.104,0.462 84.089,0.462 C84.078,0.462 84.067,0.464 84.057,0.464 C84.022,0.464 83.988,0.466 83.953,0.469 C83.929,0.471 83.904,0.473 83.879,0.476 C83.846,0.48 83.814,0.485 83.781,0.491 C83.755,0.495 83.729,0.499 83.703,0.505 C83.674,0.512 83.645,0.52 83.615,0.528 C83.588,0.535 83.559,0.543 83.532,0.552 C83.506,0.561 83.48,0.571 83.454,0.581 C83.425,0.592 83.396,0.603 83.368,0.615 C83.344,0.626 83.321,0.638 83.297,0.649 C83.267,0.664 83.238,0.679 83.208,0.696 C83.188,0.708 83.166,0.721 83.146,0.734 C83.116,0.753 83.087,0.771 83.059,0.792 C83.05,0.798 83.04,0.803 83.031,0.809 C83.02,0.818 83.009,0.828 82.997,0.837 C82.971,0.857 82.946,0.878 82.922,0.899 C82.9,0.918 82.879,0.937 82.858,0.956 C82.838,0.976 82.818,0.996 82.798,1.016 C82.777,1.039 82.756,1.062 82.735,1.086 C82.719,1.106 82.702,1.125 82.687,1.145 C82.667,1.171 82.647,1.197 82.629,1.223 C82.614,1.244 82.6,1.266 82.586,1.288 C82.569,1.314 82.553,1.34 82.538,1.367 C82.524,1.392 82.511,1.417 82.498,1.442 C82.485,1.467 82.473,1.492 82.461,1.518 C82.449,1.546 82.437,1.575 82.426,1.605 C82.416,1.628 82.408,1.652 82.4,1.676 C82.389,1.707 82.38,1.738 82.371,1.77 C82.364,1.794 82.358,1.819 82.352,1.843 C82.345,1.874 82.339,1.905 82.333,1.937 C82.328,1.964 82.325,1.991 82.321,2.019 C82.317,2.048 82.314,2.076 82.312,2.105 C82.31,2.137 82.308,2.169 82.307,2.201 C82.306,2.217 82.304,2.231 82.304,2.247 L82.304,17.77 C82.304,18.755 83.103,19.554 84.089,19.554 C85.075,19.554 85.873,18.755 85.873,17.77 L85.873,7.683 L90.154,13.501 C90.156,13.504 90.158,13.507 90.161,13.51 L90.173,13.527 C90.179,13.535 90.185,13.541 90.191,13.548 C90.223,13.591 90.258,13.633 90.295,13.674 C90.311,13.691 90.328,13.708 90.345,13.725 C90.373,13.753 90.403,13.781 90.433,13.808 C90.455,13.828 90.478,13.847 90.501,13.865 C90.51,13.873 90.519,13.882 90.53,13.889 C90.554,13.908 90.58,13.925 90.605,13.943 C90.62,13.952 90.633,13.963 90.648,13.972 C90.699,14.005 90.751,14.034 90.803,14.061 C90.818,14.068 90.832,14.074 90.845,14.081 C90.892,14.103 90.939,14.123 90.987,14.141 C90.998,14.145 91.009,14.149 91.02,14.153 C91.08,14.174 91.141,14.192 91.203,14.207 C91.206,14.208 91.21,14.208 91.213,14.209 C91.271,14.222 91.328,14.232 91.386,14.239 C91.399,14.241 91.412,14.242 91.425,14.244 C91.486,14.25 91.548,14.254 91.609,14.254 L91.611,14.254 C91.672,14.254 91.732,14.25 91.793,14.244 C91.805,14.243 91.818,14.241 91.83,14.24 C91.888,14.233 91.946,14.223 92.003,14.21 C92.006,14.21 92.008,14.209 92.008,14.209 C92.071,14.195 92.13,14.177 92.189,14.157 C92.201,14.153 92.213,14.149 92.225,14.144 C92.271,14.127 92.317,14.108 92.362,14.087 C92.376,14.081 92.389,14.075 92.403,14.068 C92.454,14.043 92.505,14.015 92.555,13.984 C92.57,13.973 92.586,13.962 92.602,13.952 C92.624,13.937 92.646,13.923 92.668,13.907 C92.679,13.899 92.689,13.89 92.699,13.881 C92.723,13.863 92.747,13.844 92.77,13.824 C92.8,13.798 92.829,13.772 92.857,13.744 C92.874,13.728 92.891,13.711 92.908,13.693 C92.944,13.654 92.979,13.614 93.012,13.572 C93.017,13.565 93.024,13.559 93.03,13.551 L93.043,13.534 C93.045,13.531 93.048,13.528 93.05,13.525 L97.614,7.534 L97.614,17.77 C97.614,18.755 98.412,19.554 99.398,19.554 C100.383,19.554 101.182,18.755 101.182,17.77 L101.182,2.247 C101.182,2.236 101.18,2.225 101.18,2.215 C101.18,2.182 101.178,2.15 101.176,2.118 L101.176,2.118 L101.176,2.118 Z" id="m" sketch:type="MSShapeGroup"></path>
            <path d="M75.488,3.964 C76.474,3.964 77.272,3.066 77.272,2.246 C77.272,1.261 76.474,0.462 75.488,0.462 L65.139,0.462 L65.132,0.463 C64.34,0.466 63.678,0.988 63.448,1.704 C63.393,1.862 63.355,2.021 63.355,2.18 C63.355,2.191 63.358,2.202 63.359,2.213 C63.358,2.225 63.355,2.235 63.355,2.247 L63.355,17.77 C63.355,18.565 63.879,19.231 64.598,19.461 C64.755,19.516 64.915,19.554 65.073,19.554 C65.084,19.554 65.095,19.551 65.106,19.55 C65.118,19.551 65.128,19.554 65.139,19.554 L75.488,19.554 C76.474,19.554 77.272,18.656 77.272,17.836 C77.272,16.85 76.474,16.052 75.488,16.052 L66.857,16.052 L66.857,11.759 L73.1,11.759 C74.067,11.759 74.851,10.975 74.851,10.008 C74.851,9.041 74.067,8.257 73.1,8.257 L66.857,8.257 L66.857,3.964 L75.488,3.964 L75.488,3.964 Z" id="Fill-7-path" sketch:type="MSShapeGroup"></path>
            <path d="M50.309,8.063 C46.759,7.521 46.717,6.431 46.704,6.073 C46.659,4.871 47.047,4.472 47.174,4.341 C47.679,3.822 48.736,3.555 50.229,3.569 C51.169,3.578 52.395,3.913 53.872,4.565 C54.142,4.684 54.425,4.73 54.702,4.713 C55.346,4.673 55.946,4.283 56.225,3.652 C56.623,2.75 56.214,1.697 55.312,1.299 C53.362,0.439 51.711,0.015 50.263,0.001 C47.735,-0.024 45.835,0.6 44.615,1.853 C43.567,2.932 43.07,4.397 43.138,6.208 C43.185,7.456 43.693,9.196 45.842,10.393 C46.851,10.955 48.099,11.335 49.77,11.59 C54.278,12.243 54.355,13.481 54.384,13.948 C54.408,14.338 54.343,14.907 53.893,15.403 C53.332,16.023 52.324,16.376 50.975,16.425 C48.808,16.504 47.223,15.781 45.832,14.988 C44.976,14.5 43.887,14.798 43.398,15.654 C42.91,16.51 43.208,17.6 44.064,18.088 C45.824,19.092 48.038,20.103 51.106,19.992 C51.121,19.991 51.137,19.99 51.152,19.989 C51.238,19.986 51.323,19.982 51.406,19.977 C54.163,19.805 55.715,18.708 56.538,17.799 C57.54,16.693 58.04,15.246 57.946,13.726 C57.869,12.496 57.342,10.773 55.265,9.554 C54.071,8.854 52.496,8.38 50.309,8.063 L50.309,8.063 Z" id="Fill-7-path" sketch:type="MSShapeGroup"></path>
            <path d="M36.05,9.554 C34.857,8.854 33.282,8.38 31.095,8.063 L31.094,8.063 C27.545,7.521 27.504,6.431 27.49,6.073 C27.445,4.871 27.833,4.472 27.96,4.341 C28.465,3.822 29.522,3.555 31.015,3.569 C31.955,3.578 33.181,3.913 34.658,4.565 C34.928,4.684 35.212,4.73 35.488,4.713 C36.132,4.673 36.732,4.283 37.011,3.652 C37.408,2.75 37,1.697 36.098,1.299 C34.148,0.439 32.497,0.015 31.049,0.001 C28.521,-0.024 26.621,0.6 25.402,1.853 C24.353,2.932 23.856,4.397 23.924,6.208 C23.971,7.456 24.479,9.196 26.628,10.393 C27.637,10.955 28.885,11.335 30.555,11.59 C30.558,11.591 30.56,11.591 30.56,11.591 L30.569,11.592 C35.064,12.243 35.141,13.481 35.17,13.948 C35.194,14.338 35.129,14.907 34.679,15.403 C34.118,16.023 33.11,16.376 31.761,16.425 C29.594,16.504 28.009,15.781 26.618,14.988 C25.762,14.5 24.672,14.798 24.184,15.654 C23.696,16.51 23.994,17.6 24.85,18.088 C26.611,19.092 28.824,20.103 31.891,19.992 C31.907,19.991 31.923,19.99 31.938,19.989 C32.024,19.986 32.109,19.982 32.192,19.977 C34.948,19.805 36.501,18.708 37.324,17.799 C38.326,16.693 38.826,15.246 38.732,13.726 C38.655,12.496 38.128,10.773 36.05,9.554 L36.05,9.554 L36.05,9.554 Z" id="Fill-7-path" sketch:type="MSShapeGroup"></path>
            <path d="M13.3004062,11.738 L10.481,6.187 L4.187,18.577 C3.872,19.197 3.245,19.554 2.594,19.554 C2.323,19.554 2.047,19.492 1.788,19.36 C0.91,18.914 0.559,17.84 1.005,16.962 L8.89,1.438 C8.894,1.43 8.9,1.422 8.905,1.413 C8.921,1.382 8.938,1.352 8.956,1.322 C8.969,1.301 8.982,1.28 8.996,1.259 C9.013,1.232 9.034,1.205 9.053,1.179 C9.069,1.158 9.084,1.136 9.101,1.116 C9.12,1.093 9.14,1.07 9.162,1.047 C9.18,1.026 9.2,1.005 9.22,0.985 C9.239,0.965 9.26,0.947 9.281,0.928 C9.304,0.907 9.327,0.886 9.35,0.866 C9.371,0.85 9.391,0.835 9.412,0.82 C9.439,0.799 9.466,0.779 9.494,0.761 C9.514,0.748 9.535,0.735 9.555,0.723 C9.586,0.704 9.616,0.686 9.647,0.67 C9.656,0.665 9.664,0.66 9.673,0.656 C9.686,0.649 9.701,0.644 9.714,0.637 C9.744,0.623 9.775,0.609 9.806,0.596 C9.831,0.586 9.858,0.576 9.884,0.567 C9.912,0.557 9.939,0.548 9.966,0.54 C9.996,0.531 10.025,0.522 10.055,0.515 C10.081,0.509 10.107,0.503 10.133,0.498 C10.163,0.492 10.195,0.486 10.226,0.482 C10.252,0.478 10.279,0.475 10.305,0.472 C10.335,0.469 10.365,0.467 10.395,0.465 C10.424,0.464 10.453,0.464 10.482,0.464 C10.51,0.464 10.536,0.464 10.564,0.465 C10.595,0.467 10.627,0.469 10.659,0.472 C10.684,0.475 10.708,0.478 10.733,0.481 C10.766,0.486 10.798,0.492 10.831,0.498 C10.855,0.503 10.88,0.509 10.904,0.515 C10.935,0.522 10.966,0.531 10.996,0.54 C11.023,0.548 11.05,0.557 11.075,0.566 C11.103,0.576 11.13,0.586 11.157,0.597 C11.187,0.609 11.216,0.623 11.246,0.636 C11.26,0.643 11.275,0.648 11.288,0.656 C11.298,0.66 11.306,0.666 11.314,0.67 C11.345,0.687 11.375,0.704 11.405,0.722 C11.426,0.735 11.447,0.748 11.467,0.761 C11.495,0.78 11.522,0.799 11.548,0.819 C11.57,0.835 11.591,0.85 11.611,0.867 C11.635,0.886 11.657,0.907 11.68,0.927 C11.701,0.947 11.722,0.965 11.742,0.985 C11.762,1.005 11.78,1.026 11.8,1.047 C11.821,1.07 11.841,1.093 11.861,1.116 C11.877,1.136 11.893,1.158 11.908,1.178 C11.928,1.205 11.947,1.232 11.966,1.259 C11.979,1.28 11.992,1.301 12.005,1.322 C12.023,1.352 12.04,1.382 12.057,1.413 C12.061,1.422 12.067,1.43 12.071,1.438 L19.956,16.962 C20.402,17.84 20.052,18.914 19.173,19.36 C18.914,19.492 18.638,19.554 18.366,19.554 C17.716,19.554 17.089,19.197 16.774,18.577 L15.0146011,15.113 L11.33,15.113 C10.397,15.113 9.642,14.357 9.642,13.425 C9.642,12.493 10.397,11.738 11.33,11.738 L13.3004062,11.738 L13.3004062,11.738 Z" id="Fill-7-path" sketch:type="MSShapeGroup"></path>
        </g>
        <g id="logo" sketch:type="MSLayerGroup">
            <path d="M0,10 C0,8.895 0.838,8 1.869,8 L13.13,8 C14.163,8 15,8.888 15,10 C15,11.105 14.161,12 13.13,12 L1.869,12 C0.837,12 0,11.112 0,10" id="Fill-1" fill="#93BB3D" sketch:type="MSShapeGroup"></path>
            <path d="M2,20 C3.104,20 4,19.105 4,18 C4,16.895 3.104,16 2,16 C0.895,16 0,16.895 0,18 C0,19.105 0.895,20 2,20" id="Fill-2" fill="#324244" sketch:type="MSShapeGroup"></path>
            <path d="M10,4 L2,4 C0.9,4 0,3.1 0,2 C0,0.9 0.9,0 2,0 L10,0 C11.1,0 12,0.9 12,2 C12,3.1 11.1,4 10,4" id="Fill-3" fill="#12A2B7" sketch:type="MSShapeGroup"></path>
            <path d="M26,4 L18,4 C16.9,4 16,3.1 16,2 C16,0.9 16.9,0 18,0 L26,0 C27.1,0 28,0.9 28,2 C28,3.1 27.1,4 26,4" id="path-1" fill="#ED554A" sketch:type="MSShapeGroup"></path>
            <path d="M26,12 L21,12 C19.9,12 19,11.1 19,10 C19,8.9 19.9,8 21,8 L26,8 C27.1,8 28,8.9 28,10 C28,11.1 27.1,12 26,12" id="Fill-5" fill="#324244" sketch:type="MSShapeGroup"></path>
            <path d="M26,20 L10,20 C8.9,20 8,19.1 8,18 C8,16.9 8.9,16 10,16 L26,16 C27.1,16 28,16.9 28,18 C28,19.1 27.1,20 26,20" id="Fill-6" fill="#FACA33" sketch:type="MSShapeGroup"></path>
        </g>
    </g>
</svg>