<?xml version="1.0" encoding="utf-8"?>
<!-- Generator: Adobe Illustrator 18.1.1, SVG Export Plug-In . SVG Version: 6.00 Build 0)  -->
<svg version="1.1" id="Layer_1" xmlns:sketch="http://www.bohemiancoding.com/sketch/ns"
	 xmlns="http://www.w3.org/2000/svg" xmlns:xlink="http://www.w3.org/1999/xlink" x="0px" y="0px" viewBox="-462 264 34 34"
	 enable-background="new -462 264 34 34" xml:space="preserve">
<title>Oval 25 + Imported Layers Copy 8</title>
<desc>Created with Sketch.</desc>
<g id="Page-1" sketch:type="MSPage">
	<g id="Oval-25-_x2B_-Imported-Layers-Copy-8" transform="translate(1.000000, 1.000000)" sketch:type="MSLayerGroup">
		<g id="Oval-25">
			<path fill="#AAAAAA" d="M-446,296.5c-9.1,0-16.5-7.4-16.5-16.5c0-9.1,7.4-16.5,16.5-16.5c9.1,0,16.5,7.4,16.5,16.5
				C-429.5,289.1-436.9,296.5-446,296.5z M-446,264.5c-8.5,0-15.5,7-15.5,15.5s7,15.5,15.5,15.5s15.5-7,15.5-15.5
				S-437.5,264.5-446,264.5z"/>
		</g>
		<g id="Imported-Layers-Copy-4" transform="translate(7.302270, 7.666667)" sketch:type="MSShapeGroup">
			<g id="Oval-7-Copy-2">
				<circle fill="#AAAAAA" cx="-459.7" cy="266" r="2"/>
			</g>
			<g id="Fill-1_1_">
				<path fill="#AAAAAA" d="M-454.4,275.2l4.5-5.9l5.6,9h-18.1l5.2-7L-454.4,275.2z"/>
			</g>
		</g>
	</g>
</g>
</svg>
