<?xml version="1.0" encoding="UTF-8" standalone="no"?>
<svg width="34px" height="34px" viewBox="0 0 34 34" version="1.1" xmlns="http://www.w3.org/2000/svg" xmlns:xlink="http://www.w3.org/1999/xlink" xmlns:sketch="http://www.bohemiancoding.com/sketch/ns">
    <!-- Generator: Sketch 3.1.1 (8761) - http://www.bohemiancoding.com/sketch -->
    <title>image-upload-icon + magic7</title>
    <desc>Created with Sketch.</desc>
    <defs></defs>
    <g id="Page-1" stroke="none" stroke-width="1" fill="none" fill-rule="evenodd" sketch:type="MSPage">
        <g id="image-upload-icon-+-magic7" sketch:type="MSLayerGroup" transform="translate(1.000000, 0.000000)" fill="#AAAAAA">
            <g id="image-upload-icon" sketch:type="MSShapeGroup">
                <g id="Page-1">
                    <g id="Oval-25-_x2B_-Imported-Layers-Copy-8">
                        <g id="Oval-25">
                            <path d="M16,33.5 C6.9,33.5 -0.5,26.1 -0.5,17 C-0.5,7.9 6.9,0.5 16,0.5 C25.1,0.5 32.5,7.9 32.5,17 C32.5,26.1 25.1,33.5 16,33.5 L16,33.5 Z M16,1.5 C7.5,1.5 0.5,8.5 0.5,17 C0.5,25.5 7.5,32.5 16,32.5 C24.5,32.5 31.5,25.5 31.5,17 C31.5,8.5 24.5,1.5 16,1.5 L16,1.5 Z" id="Shape"></path>
                        </g>
                    </g>
                </g>
            </g>
            <g id="magic7" transform="translate(7.000000, 9.000000)" sketch:type="MSShapeGroup">
                <g id="Group">
                    <path d="M16.7326959,2.99309208 C16.7326959,2.80612848 16.670666,2.65021627 16.5458415,2.52557388 L14.4879679,0.467700214 C14.3632891,0.342948608 14.2074497,0.280591006 14.0203041,0.280591006 C13.8330493,0.280591006 13.6773555,0.342948608 13.5526403,0.467700214 L0.187109208,13.8331585 C0.0622119914,13.9579829 0,14.1139679 0,14.3010407 C0,14.4881863 0.0622119914,14.6438801 0.187109208,14.7687045 L2.24491006,16.8264325 C2.36980728,16.951257 2.52550107,17.0135782 2.71268308,17.0135782 C2.89968308,17.0135782 3.05555889,16.9515482 3.1803469,16.8264325 L16.5459872,3.4608651 C16.670666,3.33600428 16.7326959,3.18027409 16.7326959,2.99309208 L16.7326959,2.99309208 Z M12.0870364,6.03834904 L10.9750835,4.92625054 L14.0201949,1.88102998 L15.1321478,2.99309208 L12.0870364,6.03834904 L12.0870364,6.03834904 Z" id="Shape"></path>
                    <path d="M2.38014561,2.6605546 L2.69189722,1.64208351 L3.71033191,1.33033191 L2.69189722,1.01850749 L2.38014561,3.64025696e-05 L2.0683212,1.01850749 L1.04985011,1.33033191 L2.0683212,1.64208351 L2.38014561,2.6605546 Z" id="Shape"></path>
                    <path d="M5.08216274,3.94946039 L5.70584797,5.98658458 L6.32953319,3.94946039 L8.36658458,3.32577516 L6.32953319,2.70216274 L5.70584797,0.665038544 L5.08216274,2.70216274 L3.04511135,3.32577516 L5.08216274,3.94946039 Z" id="Shape"></path>
                    <path d="M15.9949979,7.67002141 L15.6832827,6.65158672 L15.3716039,7.67002141 L14.35306,7.98180942 L15.3716039,8.29359743 L15.6832827,9.31195931 L15.9949979,8.29359743 L17.0136146,7.98180942 L15.9949979,7.67002141 Z" id="Shape"></path>
                    <path d="M9.03169593,2.6605546 L9.34352034,1.64208351 L10.3619186,1.33033191 L9.34352034,1.01850749 L9.03169593,3.64025696e-05 L8.72001713,1.01850749 L7.70147323,1.33033191 L8.72001713,1.64208351 L9.03169593,2.6605546 Z" id="Shape"></path>
                </g>
            </g>
        </g>
    </g>
</svg>