<?xml version="1.0" encoding="UTF-8" standalone="no"?>
<svg width="236px" height="130px" viewBox="0 0 236 130" version="1.1" xmlns="http://www.w3.org/2000/svg" xmlns:xlink="http://www.w3.org/1999/xlink" xmlns:sketch="http://www.bohemiancoding.com/sketch/ns">
    <!-- Generator: Sketch 3.3.2 (12043) - http://www.bohemiancoding.com/sketch -->
    <title>Imported Layers</title>
    <desc>Created with Sketch.</desc>
    <defs></defs>
    <g id="Page-1" stroke="none" stroke-width="1" fill="none" fill-rule="evenodd" sketch:type="MSPage">
        <g id="Artboard-1" sketch:type="MSArtboardGroup" transform="translate(-446.000000, -660.000000)">
            <g id="Imported-Layers" sketch:type="MSLayerGroup" transform="translate(446.000000, 660.000000)">
                <g id="Group" transform="translate(86.000000, 10.000000)" sketch:type="MSShapeGroup">
                    <path d="M123,97.326 C123,80.232 109.093,66 92,66 L58,66 C40.907,66 27,80.232 27,97.326 L27,98.674 C27,99.798 27.064,100.907 27.181,102 L122.819,102 C122.936,100.907 123,99.798 123,98.674 L123,97.326" id="Fill-1" fill="#FFFFFF"></path>
                    <path d="M27.181,102 C27.064,100.907 27,99.798 27,98.674 L27,97.326 C27,80.232 40.907,66 58,66 L92,66 C109.093,66 123,80.232 123,97.326 L123,98.674 C123,99.798 122.936,100.907 122.819,102 L126.838,102 C126.942,100.905 127,99.796 127,98.674 L127,97.326 C127,78.027 111.299,62 92,62 L58,62 C38.701,62 23,78.027 23,97.326 L23,98.674 C23,99.796 23.058,100.905 23.162,102 L27.181,102" id="Fill-2" fill="#222222"></path>
                    <path d="M148,102 L2,102 C0.895,102 0,102.895 0,104 C0,105.105 0.895,106 2,106 L148,106 C149.105,106 150,105.105 150,104 C150,102.895 149.105,102 148,102" id="Fill-3" fill="#222222"></path>
                    <path d="M111,37 C111,56.33 95.33,72 76,72 C56.67,72 41,56.33 41,37 C41,17.67 56.67,2 76,2 C95.33,2 111,17.67 111,37" id="Fill-4" fill="#FFFFFF"></path>
                    <path d="M76,74 C55.598,74 39,57.402 39,37 C39,16.598 55.598,0 76,0 C96.402,0 113,16.598 113,37 C113,57.402 96.402,74 76,74 L76,74 Z M76,4 C57.804,4 43,18.804 43,37 C43,55.196 57.804,70 76,70 C94.196,70 109,55.196 109,37 C109,18.804 94.196,4 76,4 L76,4 Z" id="Fill-5" fill="#222222"></path>
                    <path d="M98.333,91.111 C97.106,91.111 96.111,90.116 96.111,88.889 C96.111,87.662 97.106,86.667 98.333,86.667 C99.561,86.667 100.555,87.662 100.555,88.889 C100.555,90.116 99.561,91.111 98.333,91.111 M98.333,85.556 C96.493,85.556 95,87.048 95,88.889 C95,90.73 96.493,92.222 98.333,92.222 C100.174,92.222 101.667,90.73 101.667,88.889 C101.667,87.048 100.174,85.556 98.333,85.556" id="Fill-6" fill="#3B88C3"></path>
                    <path d="M91.546,82.791 L91.546,82.802 C90.99,82.923 90.556,83.855 90.556,85 C90.556,86.145 90.99,87.076 91.546,87.198 L91.546,87.209 L107.491,91.638 L107.491,78.369 L91.546,82.791" id="Fill-7" fill="#55ACEE"></path>
                    <path d="M110.556,85 C110.556,88.682 109.312,91.667 107.778,91.667 C106.243,91.667 105,88.682 105,85 C105,81.318 106.243,78.333 107.778,78.333 C109.312,78.333 110.556,81.318 110.556,85" id="Fill-8" fill="#226699"></path>
                </g>
                <g id="Group" sketch:type="MSShapeGroup">
                    <path d="M123,97.326 C123,80.232 109.093,66 92,66 L58,66 C40.907,66 27,80.232 27,97.326 L27,98.674 C27,99.798 27.064,100.907 27.181,102 L122.819,102 C122.936,100.907 123,99.798 123,98.674 L123,97.326" id="Fill-9" fill="#FFFFFF"></path>
                    <path d="M27.181,102 C27.064,100.907 27,99.798 27,98.674 L27,97.326 C27,80.232 40.907,66 58,66 L92,66 C109.093,66 123,80.232 123,97.326 L123,98.674 C123,99.798 122.936,100.907 122.819,102 L126.838,102 C126.942,100.905 127,99.796 127,98.674 L127,97.326 C127,78.027 111.299,62 92,62 L58,62 C38.701,62 23,78.027 23,97.326 L23,98.674 C23,99.796 23.058,100.905 23.162,102 L27.181,102" id="Fill-10" fill="#222222"></path>
                    <path d="M148,102 L2,102 C0.895,102 0,102.895 0,104 C0,105.105 0.895,106 2,106 L148,106 C149.105,106 150,105.105 150,104 C150,102.895 149.105,102 148,102" id="Fill-11" fill="#222222"></path>
                    <path d="M111,37 C111,56.33 95.33,72 76,72 C56.67,72 41,56.33 41,37 C41,17.67 56.67,2 76,2 C95.33,2 111,17.67 111,37" id="Fill-12" fill="#FFFFFF"></path>
                    <path d="M76,74 C55.598,74 39,57.402 39,37 C39,16.598 55.598,0 76,0 C96.402,0 113,16.598 113,37 C113,57.402 96.402,74 76,74 L76,74 Z M76,4 C57.804,4 43,18.804 43,37 C43,55.196 57.804,70 76,70 C94.196,70 109,55.196 109,37 C109,18.804 94.196,4 76,4 L76,4 Z" id="Fill-13" fill="#222222"></path>
                    <path d="M50.891,90.649 C50.591,87.34 48.942,85.68 48.942,85.68 L45.942,81.68 L41.942,81.68 L38.942,85.68 C38.942,85.68 38.232,86.396 37.658,87.817 C36.664,88.147 35.942,89.074 35.942,90.18 C35.942,90.904 36.254,91.551 36.746,92.007 C36.558,92.358 36.442,92.753 36.442,93.18 C36.442,94.159 37.01,94.997 37.829,95.408 C38.471,96.368 39.328,96.68 39.942,96.68 L47.942,96.68 C48.631,96.68 49.628,96.29 50.28,95.025 C51.246,94.679 51.942,93.764 51.942,92.68 C51.942,91.841 51.525,91.102 50.891,90.649" id="Fill-14" fill="#FDD888"></path>
                    <path d="M43.941,81.679 C44.216,81.679 44.47,81.6 44.691,81.471 C44.913,81.6 45.167,81.679 45.441,81.679 C46.27,81.679 47.441,80.507 47.441,79.68 C47.441,79.68 47.441,78.679 46.441,78.679 C46.047,78.679 45.941,79.18 45.441,79.18 C44.941,79.18 44.941,78.679 43.941,78.679 C42.941,78.679 42.941,79.18 42.441,79.18 C41.941,79.18 41.836,78.679 41.441,78.679 C40.441,78.679 40.441,79.68 40.441,79.68 C40.441,80.507 41.613,81.679 42.441,81.679 C42.716,81.679 42.97,81.6 43.191,81.471 C43.413,81.6 43.667,81.679 43.941,81.679" id="Fill-15" fill="#FDD888"></path>
                    <path d="M46.941,81.679 C46.941,81.955 46.718,82.18 46.441,82.18 L41.441,82.18 C41.165,82.18 40.941,81.955 40.941,81.679 C40.941,81.403 41.165,81.18 41.441,81.18 L46.441,81.18 C46.718,81.18 46.941,81.403 46.941,81.679" id="Fill-16" fill="#BF6952"></path>
                    <path d="M46.892,90.95 C46.892,88.712 42.602,88.858 42.602,87.507 C42.602,86.853 43.253,86.534 44.008,86.534 C45.277,86.534 45.503,87.318 46.077,87.318 C46.484,87.318 46.68,87.071 46.68,86.795 C46.68,86.154 45.668,85.667 44.697,85.499 L44.697,84.879 C44.697,84.493 44.372,84.18 43.97,84.18 C43.568,84.18 43.242,84.493 43.242,84.879 L43.242,85.522 C42.184,85.753 41.274,86.459 41.274,87.61 C41.274,89.759 45.563,89.672 45.563,91.182 C45.563,91.705 44.974,92.228 44.008,92.228 C42.557,92.228 42.074,91.284 41.485,91.284 C41.198,91.284 40.942,91.516 40.942,91.866 C40.942,92.422 41.91,93.091 43.243,93.278 C43.243,93.28 43.242,93.281 43.242,93.283 L43.242,93.982 C43.242,94.368 43.568,94.683 43.97,94.683 C44.372,94.683 44.698,94.368 44.698,93.982 L44.698,93.283 C44.698,93.274 44.694,93.268 44.694,93.26 C45.892,93.045 46.892,92.294 46.892,90.95" id="Fill-17" fill="#67757F"></path>
                </g>
                <path d="M165,121.326 C165,104.232 151.093,90 134,90 L100,90 C82.907,90 69,104.232 69,121.326 L69,122.674 C69,123.798 69.064,124.907 69.181,126 L164.819,126 C164.936,124.907 165,123.798 165,122.674 L165,121.326" id="Fill-18" fill="#FFFFFF" sketch:type="MSShapeGroup"></path>
                <path d="M69.181,126 C69.064,124.907 69,123.798 69,122.674 L69,121.326 C69,104.232 82.907,90 100,90 L134,90 C151.093,90 165,104.232 165,121.326 L165,122.674 C165,123.798 164.936,124.907 164.819,126 L168.838,126 C168.942,124.905 169,123.796 169,122.674 L169,121.326 C169,102.027 153.299,86 134,86 L100,86 C80.701,86 65,102.027 65,121.326 L65,122.674 C65,123.796 65.058,124.905 65.162,126 L69.181,126" id="Fill-19" fill="#222222" sketch:type="MSShapeGroup"></path>
                <path d="M190,126 L44,126 C42.895,126 42,126.895 42,128 C42,129.105 42.895,130 44,130 L190,130 C191.105,130 192,129.105 192,128 C192,126.895 191.105,126 190,126" id="Fill-20" fill="#222222" sketch:type="MSShapeGroup"></path>
                <path d="M153,61 C153,80.33 137.33,96 118,96 C98.67,96 83,80.33 83,61 C83,41.67 98.67,26 118,26 C137.33,26 153,41.67 153,61" id="Fill-21" fill="#FFFFFF" sketch:type="MSShapeGroup"></path>
                <path d="M118,98 C97.598,98 81,81.402 81,61 C81,40.598 97.598,24 118,24 C138.402,24 155,40.598 155,61 C155,81.402 138.402,98 118,98 L118,98 Z M118,28 C99.804,28 85,42.804 85,61 C85,79.196 99.804,94 118,94 C136.196,94 151,79.196 151,61 C151,42.804 136.196,28 118,28 L118,28 Z" id="Fill-22" fill="#222222" sketch:type="MSShapeGroup"></path>
                <path d="M88.419,116.428 C88.221,117.101 87.189,117.39 86.112,117.074 C85.036,116.758 84.323,115.957 84.521,115.283 C84.718,114.61 85.751,114.321 86.827,114.638 C87.904,114.954 88.617,115.755 88.419,116.428 M86.994,104.205 C82.024,104.205 77.994,107.659 77.994,111.919 C77.994,112.452 78.058,112.973 78.178,113.475 C79.067,115.005 79.683,114.039 82.494,112.633 C85.358,111.201 82.494,114.633 81.494,116.633 C81.187,117.249 81.354,117.769 81.774,118.195 C83.247,119.097 85.046,119.633 86.994,119.633 C91.965,119.633 95.994,116.18 95.994,111.919 C95.994,107.659 91.965,104.205 86.994,104.205" id="Fill-23" fill="#D99E82" sketch:type="MSShapeGroup"></path>
                <path d="M84.494,108.134 C84.494,108.962 83.823,109.634 82.994,109.634 C82.166,109.634 81.494,108.962 81.494,108.134 C81.494,107.305 82.166,106.634 82.994,106.634 C83.823,106.634 84.494,107.305 84.494,108.134" id="Fill-24" fill="#5C913B" sketch:type="MSShapeGroup"></path>
                <path d="M89.494,107.133 C89.494,107.962 88.822,108.633 87.994,108.633 C87.166,108.633 86.494,107.962 86.494,107.133 C86.494,106.305 87.166,105.633 87.994,105.633 C88.822,105.633 89.494,106.305 89.494,107.133" id="Fill-25" fill="#226699" sketch:type="MSShapeGroup"></path>
                <path d="M93.994,110.133 C93.994,110.962 93.322,111.633 92.494,111.633 C91.666,111.633 90.994,110.962 90.994,110.133 C90.994,109.305 91.666,108.633 92.494,108.633 C93.322,108.633 93.994,109.305 93.994,110.133" id="Fill-26" fill="#DD2E44" sketch:type="MSShapeGroup"></path>
                <path d="M93.494,114.633 C93.494,115.461 92.822,116.133 91.994,116.133 C91.166,116.133 90.494,115.461 90.494,114.633 C90.494,113.806 91.166,113.133 91.994,113.133 C92.822,113.133 93.494,113.806 93.494,114.633" id="Fill-27" fill="#FFCC4D" sketch:type="MSShapeGroup"></path>
            </g>
        </g>
    </g>
</svg>