<?xml version="1.0" encoding="UTF-8" standalone="no"?>
<svg width="150px" height="106px" viewBox="0 0 150 106" version="1.1" xmlns="http://www.w3.org/2000/svg" xmlns:xlink="http://www.w3.org/1999/xlink" xmlns:sketch="http://www.bohemiancoding.com/sketch/ns">
    <!-- Generator: Sketch 3.3.2 (12043) - http://www.bohemiancoding.com/sketch -->
    <title>Imported Layers Copy</title>
    <desc>Created with Sketch.</desc>
    <defs></defs>
    <g id="Page-1" stroke="none" stroke-width="1" fill="none" fill-rule="evenodd" sketch:type="MSPage">
        <g id="Artboard-1" sketch:type="MSArtboardGroup" transform="translate(-212.000000, -684.000000)">
            <g id="Imported-Layers-Copy" sketch:type="MSLayerGroup" transform="translate(212.000000, 684.000000)">
                <path d="M123,97.326 C123,80.232 109.093,66 92,66 L58,66 C40.907,66 27,80.232 27,97.326 L27,98.674 C27,99.798 27.064,100.907 27.181,102 L122.819,102 C122.936,100.907 123,99.798 123,98.674 L123,97.326" id="Fill-18" fill="#FFFFFF" sketch:type="MSShapeGroup"></path>
                <path d="M27.181,102 C27.064,100.907 27,99.798 27,98.674 L27,97.326 C27,80.232 40.907,66 58,66 L92,66 C109.093,66 123,80.232 123,97.326 L123,98.674 C123,99.798 122.936,100.907 122.819,102 L126.838,102 C126.942,100.905 127,99.796 127,98.674 L127,97.326 C127,78.027 111.299,62 92,62 L58,62 C38.701,62 23,78.027 23,97.326 L23,98.674 C23,99.796 23.058,100.905 23.162,102 L27.181,102" id="Fill-19" fill="#222222" sketch:type="MSShapeGroup"></path>
                <path d="M148,102 L2,102 C0.895,102 0,102.895 0,104 C0,105.105 0.895,106 2,106 L148,106 C149.105,106 150,105.105 150,104 C150,102.895 149.105,102 148,102" id="Fill-20" fill="#222222" sketch:type="MSShapeGroup"></path>
                <path d="M111,37 C111,56.33 95.33,72 76,72 C56.67,72 41,56.33 41,37 C41,17.67 56.67,2 76,2 C95.33,2 111,17.67 111,37" id="Fill-21" fill="#FFFFFF" sketch:type="MSShapeGroup"></path>
                <path d="M76,74 C55.598,74 39,57.402 39,37 C39,16.598 55.598,0 76,0 C96.402,0 113,16.598 113,37 C113,57.402 96.402,74 76,74 L76,74 Z M76,4 C57.804,4 43,18.804 43,37 C43,55.196 57.804,70 76,70 C94.196,70 109,55.196 109,37 C109,18.804 94.196,4 76,4 L76,4 Z" id="Fill-22" fill="#222222" sketch:type="MSShapeGroup"></path>
                <path d="M49.7717125,89.543425 C49.4431851,89.543425 49.1251746,89.5844909 48.8181818,89.6556051 L43.3448958,84.1818182 C43.4155091,83.8753262 43.4570758,83.5568149 43.4570758,83.2282875 C43.4570758,80.8930388 41.5635362,79 39.2287883,79 C38.7525238,79 38.1195076,79.4832758 38.6468542,80.0106223 L40.2278921,81.5921611 C40.2278921,81.5921611 40.7552387,82.6463534 39.7010464,83.7005456 C38.6468542,84.7552387 37.5921611,84.2278921 37.5921611,84.2278921 L36.0106223,82.6463534 C35.4837766,82.1190068 35,82.749519 35,83.2282875 C35,85.5635362 36.8930388,87.456575 39.2287883,87.456575 C39.5568149,87.456575 39.8748254,87.4155091 40.1818182,87.3448958 L45.6551042,92.8186826 C45.5844909,93.1251746 45.543425,93.4431851 45.543425,93.7717125 C45.543425,96.1069612 47.4364638,98 49.7717125,98 C50.2474762,98 50.8809932,97.5167242 50.3536466,96.9893777 L48.7726087,95.4078389 C48.7726087,95.4078389 48.2452621,94.3536466 49.2994544,93.2994544 C50.3536466,92.2447613 51.4083397,92.7721079 51.4083397,92.7721079 L52.9898785,94.3536466 C53.5167242,94.8804924 54,94.250481 54,93.7717125 C54,91.4369646 52.1069612,89.543425 49.7717125,89.543425" id="Imported-Layers" fill="#8899A6" sketch:type="MSShapeGroup"></path>
            </g>
        </g>
    </g>
</svg>