<?xml version="1.0" encoding="UTF-8" standalone="no"?>
<svg width="141px" height="15px" viewBox="0 0 141 15" version="1.1" xmlns="http://www.w3.org/2000/svg" xmlns:xlink="http://www.w3.org/1999/xlink" xmlns:sketch="http://www.bohemiancoding.com/sketch/ns">
    <!-- Generator: Sketch 3.3.2 (12043) - http://www.bohemiancoding.com/sketch -->
    <title>Imported Layers Copy 4 + Imported Layers</title>
    <desc>Created with Sketch.</desc>
    <defs></defs>
    <g id="Page-2" stroke="none" stroke-width="1" fill="none" fill-rule="evenodd" sketch:type="MSPage">
        <g id="landing-v2.1-copy-15" sketch:type="MSArtboardGroup" transform="translate(-103.000000, -3851.000000)" fill="#FFFFFF">
            <g id="footer" sketch:type="MSLayerGroup" transform="translate(-20.000000, 3809.000000)">
                <g id="Imported-Layers-Copy-4-+-Imported-Layers" transform="translate(123.000000, 42.000000)" sketch:type="MSShapeGroup">
                    <g id="Imported-Layers-Copy-4">
                        <path d="M0,6.97674419 C0,6.20581395 0.584651163,5.58139535 1.30395349,5.58139535 L9.16046512,5.58139535 C9.88116279,5.58139535 10.4651163,6.20093023 10.4651163,6.97674419 C10.4651163,7.74767442 9.87976744,8.37209302 9.16046512,8.37209302 L1.30395349,8.37209302 C0.583953488,8.37209302 0,7.75255814 0,6.97674419" id="Fill-1"></path>
                        <path d="M1.39534884,13.9534884 C2.1655814,13.9534884 2.79069767,13.3290698 2.79069767,12.5581395 C2.79069767,11.7872093 2.1655814,11.1627907 1.39534884,11.1627907 C0.624418605,11.1627907 0,11.7872093 0,12.5581395 C0,13.3290698 0.624418605,13.9534884 1.39534884,13.9534884" id="Fill-2"></path>
                        <path d="M6.97674419,2.79069767 L1.39534884,2.79069767 C0.627906977,2.79069767 0,2.1627907 0,1.39534884 C0,0.627906977 0.627906977,0 1.39534884,0 L6.97674419,0 C7.74418605,0 8.37209302,0.627906977 8.37209302,1.39534884 C8.37209302,2.1627907 7.74418605,2.79069767 6.97674419,2.79069767" id="Fill-3"></path>
                        <path d="M18.1395349,2.79069767 L12.5581395,2.79069767 C11.7906977,2.79069767 11.1627907,2.1627907 11.1627907,1.39534884 C11.1627907,0.627906977 11.7906977,0 12.5581395,0 L18.1395349,0 C18.9069767,0 19.5348837,0.627906977 19.5348837,1.39534884 C19.5348837,2.1627907 18.9069767,2.79069767 18.1395349,2.79069767" id="Fill-4"></path>
                        <path d="M18.1395349,8.37209302 L14.6511628,8.37209302 C13.8837209,8.37209302 13.255814,7.74418605 13.255814,6.97674419 C13.255814,6.20930233 13.8837209,5.58139535 14.6511628,5.58139535 L18.1395349,5.58139535 C18.9069767,5.58139535 19.5348837,6.20930233 19.5348837,6.97674419 C19.5348837,7.74418605 18.9069767,8.37209302 18.1395349,8.37209302" id="Fill-5"></path>
                        <path d="M18.1395349,13.9534884 L6.97674419,13.9534884 C6.20930233,13.9534884 5.58139535,13.3255814 5.58139535,12.5581395 C5.58139535,11.7906977 6.20930233,11.1627907 6.97674419,11.1627907 L18.1395349,11.1627907 C18.9069767,11.1627907 19.5348837,11.7906977 19.5348837,12.5581395 C19.5348837,13.3255814 18.9069767,13.9534884 18.1395349,13.9534884" id="Fill-6"></path>
                    </g>
                    <g id="Imported-Layers" transform="translate(26.000000, 0.000000)">
                        <path d="M114.089,0.855 L114.089,0.855 C114.001,0.855 113.957,0.898 113.957,0.898 L113.65,1.381 L113.343,0.898 C113.299,0.855 113.299,0.855 113.211,0.855 L113.167,0.855 C113.08,0.855 113.036,0.898 113.036,0.986 L113.036,1.908 C113.036,1.952 113.08,2.04 113.167,2.04 C113.211,2.04 113.299,1.996 113.299,1.908 L113.299,1.337 L113.518,1.688 C113.562,1.732 113.562,1.732 113.606,1.732 C113.65,1.732 113.694,1.688 113.694,1.688 L113.914,1.337 L113.914,1.908 C113.914,1.952 113.957,2.04 114.045,2.04 C114.089,2.04 114.177,1.996 114.177,1.908 L114.177,0.986 C114.221,0.898 114.133,0.855 114.089,0.855" id="Fill-1"></path>
                        <path d="M112.728,0.855 L111.982,0.855 C111.939,0.855 111.851,0.898 111.851,0.986 C111.851,1.03 111.895,1.118 111.982,1.118 L112.246,1.118 L112.246,1.908 C112.246,1.996 112.289,2.04 112.377,2.04 C112.465,2.04 112.509,1.996 112.509,1.908 L112.509,1.118 L112.772,1.118 C112.816,1.118 112.904,1.074 112.904,0.986 C112.86,0.898 112.816,0.855 112.728,0.855" id="Fill-2"></path>
                        <path d="M83.807,6.56 C84.245,5.946 84.509,5.199 84.509,4.409 C84.509,2.303 82.797,0.591 80.69,0.591 L80.515,0.591 L75.292,0.591 C74.59,0.591 74.063,1.162 74.063,1.82 L74.063,12.616 C74.063,13.319 74.634,13.845 75.292,13.845 L81.305,13.845 C83.543,13.845 85.386,12.002 85.386,9.764 C85.386,8.447 84.772,7.306 83.807,6.56 L83.807,6.56 Z M76.521,3.093 L80.69,3.093 L80.822,3.093 C81.48,3.181 82.007,3.707 82.007,4.409 C82.007,5.155 81.437,5.726 80.69,5.726 L76.521,5.726 L76.521,3.093 L76.521,3.093 Z M81.305,11.388 L76.521,11.388 L76.521,8.184 L81.305,8.184 C82.183,8.184 82.929,8.886 82.929,9.808 C82.885,10.685 82.183,11.388 81.305,11.388 L81.305,11.388 Z" id="Fill-3"></path>
                        <path d="M69.762,1.732 L69.762,1.557 L69.762,1.469 L69.762,1.425 C69.762,1.425 69.762,1.381 69.719,1.381 C69.719,1.381 69.719,1.337 69.675,1.337 C69.675,1.337 69.675,1.293 69.631,1.293 L69.587,1.25 C69.587,1.249 69.587,1.206 69.543,1.206 L69.499,1.162 C69.499,1.162 69.499,1.118 69.455,1.118 L69.324,0.986 L69.28,0.942 C69.28,0.942 69.28,0.942 69.236,0.942 L69.192,0.898 C69.192,0.898 69.148,0.898 69.148,0.855 L69.104,0.811 C69.104,0.811 69.06,0.811 69.06,0.767 C69.06,0.767 69.017,0.767 69.017,0.723 L68.841,0.723 L68.753,0.723 L68.709,0.723 L68.621,0.723 C68.621,0.723 68.621,0.723 68.578,0.723 L68.49,0.723 L68.227,0.723 C68.227,0.723 68.183,0.723 68.183,0.767 C68.183,0.767 68.139,0.767 68.139,0.811 C68.139,0.811 68.095,0.811 68.095,0.855 L68.051,0.898 C68.051,0.898 68.007,0.898 68.007,0.942 L67.963,0.986 C67.963,0.986 67.92,0.986 67.92,1.03 L67.876,1.074 L67.832,1.118 L67.788,1.162 L67.744,1.206 L63.311,6.999 L59.054,1.206 C59.054,1.206 59.054,1.206 59.054,1.162 L59.01,1.118 L58.966,1.074 L58.923,1.03 L58.879,0.986 L58.835,0.942 L58.791,0.898 C58.791,0.898 58.747,0.898 58.747,0.855 L58.703,0.811 C58.703,0.811 58.659,0.811 58.659,0.767 C58.659,0.767 58.615,0.767 58.615,0.723 C58.615,0.723 58.572,0.723 58.572,0.679 L58.308,0.679 L58.22,0.679 C58.22,0.679 58.22,0.679 58.177,0.679 C58.177,0.679 58.177,0.679 58.133,0.679 L58.045,0.679 L58.001,0.679 L57.913,0.679 L57.738,0.679 C57.738,0.679 57.694,0.679 57.694,0.723 C57.694,0.723 57.65,0.723 57.65,0.767 C57.65,0.767 57.606,0.767 57.606,0.811 C57.606,0.811 57.562,0.811 57.562,0.855 L57.518,0.898 C57.518,0.898 57.518,0.898 57.475,0.898 L57.431,0.942 L57.387,0.986 L57.343,1.03 L57.299,1.074 L57.255,1.118 L57.211,1.162 C57.211,1.162 57.211,1.206 57.167,1.206 L57.124,1.25 C57.124,1.249 57.124,1.293 57.08,1.293 C57.08,1.293 57.08,1.337 57.036,1.337 C57.036,1.337 57.036,1.381 56.992,1.381 L56.992,1.645 L56.992,1.732 C56.992,1.732 56.992,1.732 56.992,1.776 L56.992,12.573 C56.992,13.275 57.562,13.801 58.221,13.801 C58.923,13.801 59.45,13.231 59.45,12.573 L59.45,5.551 L62.434,9.588 L62.522,9.676 L62.61,9.764 L62.653,9.808 L62.697,9.852 C62.697,9.851 62.697,9.852 62.741,9.852 C62.785,9.895 62.829,9.895 62.829,9.895 L62.873,9.895 C62.917,9.895 62.917,9.939 62.961,9.939 L63.004,9.939 C63.048,9.939 63.092,9.983 63.136,9.983 L63.268,9.983 L63.312,9.983 L63.443,9.983 L63.575,9.983 L63.619,9.983 L63.751,9.983 C63.794,9.983 63.838,9.983 63.882,9.939 L63.926,9.939 C63.97,9.939 63.97,9.895 64.014,9.895 L64.058,9.895 C64.102,9.895 64.146,9.852 64.146,9.852 C64.146,9.851 64.146,9.852 64.189,9.808 C64.189,9.808 64.233,9.808 64.233,9.764 L64.277,9.72 L64.321,9.676 L64.365,9.632 C64.409,9.588 64.409,9.588 64.453,9.544 L67.613,5.375 L67.613,12.485 C67.613,13.187 68.183,13.714 68.841,13.714 C69.544,13.714 70.07,13.143 70.07,12.485 L70.07,1.688 C70.07,1.688 70.07,1.688 70.07,1.645 C69.762,1.776 69.762,1.776 69.762,1.732" id="Fill-4"></path>
                        <path d="M96.797,11.388 L91.662,11.388 L91.662,1.82 C91.662,1.118 91.092,0.591 90.434,0.591 C89.731,0.591 89.205,1.162 89.205,1.82 L89.205,12.616 C89.205,13.319 89.775,13.845 90.434,13.845 L96.797,13.845 C97.499,13.845 98.026,13.275 98.026,12.616 C98.026,11.958 97.456,11.388 96.797,11.388" id="Fill-5"></path>
                        <path d="M37.812,6.911 C36.978,6.428 35.881,6.077 34.345,5.858 C31.887,5.463 31.843,4.717 31.843,4.453 C31.8,3.619 32.063,3.356 32.151,3.268 C32.502,2.917 33.248,2.742 34.257,2.742 C34.915,2.742 35.749,2.961 36.803,3.444 C36.978,3.532 37.198,3.576 37.373,3.532 C37.812,3.488 38.251,3.224 38.426,2.786 C38.69,2.171 38.426,1.425 37.812,1.162 C36.452,0.547 35.311,0.284 34.301,0.24 C32.546,0.24 31.229,0.635 30.351,1.513 C29.605,2.259 29.254,3.268 29.342,4.541 C29.386,5.419 29.737,6.604 31.229,7.438 C31.931,7.833 32.809,8.096 33.95,8.272 C37.066,8.71 37.154,9.588 37.154,9.895 C37.154,10.159 37.11,10.554 36.803,10.905 C36.408,11.344 35.706,11.563 34.784,11.607 C33.292,11.651 32.151,11.168 31.185,10.598 C30.571,10.246 29.824,10.466 29.473,11.08 C29.122,11.695 29.342,12.441 29.956,12.792 C31.185,13.494 32.721,14.196 34.872,14.109 L34.915,14.109 L35.091,14.109 C37.022,13.977 38.075,13.231 38.646,12.573 C39.348,11.783 39.699,10.817 39.612,9.72 C39.612,8.974 39.26,7.745 37.812,6.911" id="Fill-6"></path>
                        <path d="M24.426,6.911 C23.592,6.428 22.495,6.077 20.959,5.858 C18.501,5.463 18.458,4.717 18.458,4.453 C18.414,3.619 18.677,3.356 18.765,3.268 C19.116,2.917 19.862,2.742 20.871,2.742 C21.53,2.742 22.364,2.961 23.417,3.444 C23.592,3.532 23.812,3.576 23.987,3.532 C24.426,3.488 24.865,3.224 25.041,2.786 C25.304,2.171 25.041,1.425 24.426,1.162 C23.066,0.547 21.925,0.284 20.915,0.24 C19.16,0.24 17.843,0.635 16.965,1.513 C16.219,2.259 15.868,3.268 15.956,4.541 C16,5.419 16.351,6.604 17.843,7.438 C18.545,7.833 19.423,8.096 20.564,8.272 C23.68,8.71 23.768,9.588 23.768,9.895 C23.768,10.159 23.724,10.554 23.417,10.905 C23.022,11.344 22.32,11.563 21.398,11.607 C19.906,11.651 18.765,11.168 17.799,10.598 C17.185,10.246 16.439,10.466 16.088,11.08 C15.737,11.695 15.956,12.441 16.57,12.792 C17.799,13.494 19.335,14.196 21.486,14.109 L21.53,14.109 L21.705,14.109 C23.636,13.977 24.69,13.231 25.26,12.573 C25.962,11.783 26.314,10.817 26.226,9.72 C26.226,8.974 25.875,7.745 24.426,6.911" id="Fill-7"></path>
                        <path d="M7.749,1.25 C7.749,1.249 7.705,1.25 7.749,1.25 C7.749,1.206 7.705,1.206 7.705,1.162 C7.705,1.162 7.705,1.118 7.661,1.118 L7.617,1.074 C7.617,1.074 7.617,1.03 7.574,1.03 L7.53,0.986 L7.486,0.942 L7.442,0.898 L7.398,0.855 L7.354,0.811 L7.31,0.767 C7.31,0.767 7.266,0.767 7.266,0.723 L7.222,0.679 C7.222,0.679 7.222,0.679 7.178,0.679 C7.178,0.679 7.135,0.679 7.135,0.635 L6.959,0.635 L6.871,0.635 L6.827,0.635 L6.739,0.635 L6.345,0.635 C6.345,0.635 6.301,0.635 6.301,0.679 C6.301,0.679 6.301,0.679 6.257,0.679 L6.213,0.723 C6.213,0.723 6.169,0.723 6.169,0.767 L6.125,0.811 C6.125,0.811 6.081,0.811 6.081,0.855 L5.906,1.03 L5.862,1.074 L5.818,1.118 C5.818,1.118 5.818,1.162 5.774,1.162 L5.73,1.206 L0.244,12.002 C-0.063,12.616 0.156,13.363 0.771,13.67 C0.946,13.758 1.122,13.801 1.341,13.801 C1.78,13.801 2.219,13.538 2.439,13.143 L6.827,4.497 L11.216,13.143 C11.436,13.582 11.874,13.801 12.313,13.801 C12.489,13.801 12.708,13.758 12.884,13.67 C13.498,13.363 13.718,12.616 13.41,12.002 L7.749,1.25" id="Fill-8"></path>
                        <path d="M51.9,3.005 C52.602,3.005 53.129,2.391 53.129,1.82 C53.129,1.118 52.558,0.591 51.9,0.591 L44.703,0.591 C44.132,0.591 43.693,0.942 43.517,1.469 C43.474,1.557 43.474,1.688 43.474,1.82 C43.474,1.82 43.474,1.82 43.474,1.864 C43.474,1.864 43.474,1.864 43.474,1.908 L43.474,12.704 C43.474,13.275 43.825,13.714 44.351,13.889 C44.439,13.933 44.571,13.933 44.703,13.933 L44.746,13.933 L44.79,13.933 L51.988,13.933 C52.69,13.933 53.217,13.319 53.217,12.748 C53.217,12.046 52.646,11.519 51.988,11.519 L45.888,11.519 L45.888,8.535 L50.232,8.535 C50.891,8.535 51.461,8.008 51.461,7.306 C51.461,6.648 50.935,6.077 50.232,6.077 L45.888,6.077 L45.888,3.093 L51.9,3.093 L51.9,3.005" id="Fill-9"></path>
                        <path d="M7.222,8.403 C7.877,8.403 8.407,8.934 8.407,9.588 C8.407,10.243 7.877,10.773 7.222,10.773 C6.568,10.773 6.037,10.243 6.037,9.588 C6.037,8.934 6.568,8.403 7.222,8.403" id="Fill-10"></path>
                        <path d="M7.222,8.447 L10.294,8.447 L10.294,10.817 L7.222,10.817 L7.222,8.447 Z" id="Fill-11"></path>
                        <path d="M104.258,6.604 L100.22,1.03 C99.826,0.46 99.035,0.328 98.465,0.767 C97.894,1.162 97.763,1.952 98.202,2.522 L103.029,9.149 L103.029,12.704 C103.029,13.406 103.6,13.977 104.302,13.977 C105.004,13.977 105.575,13.406 105.575,12.704 L105.575,8.579" id="Fill-12"></path>
                        <path d="M109.349,0.503 C110.004,0.503 110.534,1.034 110.534,1.688 C110.534,2.343 110.004,2.873 109.349,2.873 C108.695,2.873 108.164,2.343 108.164,1.688 C108.164,1.034 108.695,0.503 109.349,0.503" id="Fill-13"></path>
                        <path d="M107.023,3.751 C107.678,3.751 108.208,4.282 108.208,4.936 C108.208,5.591 107.678,6.121 107.023,6.121 C106.369,6.121 105.838,5.591 105.838,4.936 C105.838,4.282 106.369,3.751 107.023,3.751" id="Fill-14"></path>
                        <path d="M110.33,2.394 L107.973,5.618 L106.06,4.219 L108.417,0.995 L110.33,2.394" id="Fill-15"></path>
                    </g>
                </g>
            </g>
        </g>
    </g>
</svg>